<mxfile host="app.diagrams.net" modified="2023-09-03T05:55:05.236Z" agent="Mozilla/5.0 (Windows NT 10.0; Win64; x64) AppleWebKit/537.36 (KHTML, like Gecko) Chrome/110.0.0.0 Safari/537.36" version="21.7.2" etag="b7oEOS-EIURZ7aqK7CtS" type="github">
  <diagram name="Страница — 1" id="cvJ9T2441eXsJ9PKUv6I">
    <mxGraphModel>
      <root>
        <mxCell id="0" />
        <mxCell id="1" parent="0" />
      </root>
    </mxGraphModel>
  </diagram>
</mxfile>
